<svg width="203" height="58" viewBox="0 0 203 58" fill="none" xmlns="http://www.w3.org/2000/svg">
<path d="M32.2833 36.5413C29.921 38.5314 26.6715 39.4909 23.3655 38.8857C18.2341 37.9534 14.6625 33.5809 14.7303 28.7067L8.64386 25.9262C6.98803 34.7531 13.0406 43.2583 22.1957 44.9157C28.5082 46.0607 34.6738 43.6509 38.4714 39.1583L32.2833 36.5413Z" fill="#FC9725"/>
<path d="M41.9824 31.8636C41.7055 33.2865 41.2421 34.6278 40.6317 35.8763L27.1647 30.3915L27.3116 32.7468L4 22.1098L20.9313 25.1793L21.3721 22.9221L35.5851 26.2806C35.4269 25.6809 35.2121 25.0975 34.9409 24.5469C33.545 21.6573 30.7815 19.4274 27.289 18.7949C23.1297 18.0425 19.072 19.7545 16.7437 22.8567L10.1034 21.6518C13.3642 15.2129 20.807 11.3801 28.4588 12.7704C30.2616 13.0975 31.9457 13.6863 33.4659 14.4987C33.0251 15.1202 32.7086 15.8453 32.556 16.6304C31.9626 19.6782 34.048 22.6223 37.207 23.1947C38.5577 23.4401 39.8801 23.2166 41.0047 22.6386C41.4907 23.7836 41.8524 24.9885 42.0559 26.2261C42.1463 26.7604 42.2141 27.3056 42.248 27.8508C42.3328 29.1648 42.248 30.506 41.9824 31.8581V31.8636Z" fill="#FC9725"/>
<path d="M41.1867 18.2005C41.0171 19.0674 40.4576 19.7707 39.7117 20.1687C39.1352 20.4795 38.4401 20.6049 37.7337 20.4795C36.1288 20.1905 35.0776 18.7021 35.3771 17.1537C35.4562 16.7339 35.6314 16.3577 35.8744 16.0306C36.5187 15.1528 37.6603 14.6676 38.8244 14.8802C40.4294 15.1692 41.4805 16.6576 41.181 18.206L41.1867 18.2005Z" fill="#FC9725"/>
<path d="M68.0942 21.4637C67.3652 25.3074 63.8557 27.7772 59.3234 27.7772C53.073 27.7772 49.8574 23.0503 49.8574 18.5741C49.8574 14.098 52.7057 9.44189 58.956 9.44189C65.2064 9.44189 68.0546 14.0598 68.0546 18.1161C68.0546 18.7868 68.0151 19.3156 67.9811 19.7027H54.7515C55.1188 22.2052 56.7633 23.759 59.3177 23.759C61.3635 23.759 62.7141 22.9849 63.121 21.4692H68.0885L68.0942 21.4637ZM54.8306 16.6005H62.9797C62.8328 14.6268 61.4087 13.0403 58.9617 13.0403C56.6616 13.0403 55.2714 14.1307 54.8306 16.6005Z" fill="#FEFEFE"/>
<path d="M69.9238 18.6068C69.9238 13.4219 73.7215 9.44189 79.4237 9.44189C84.2499 9.44189 88.0871 12.2606 88.4149 16.3878H83.3005C83.0066 14.8013 81.4355 13.64 79.5706 13.64C76.8297 13.64 75.2191 15.7227 75.2191 18.6123C75.2191 21.5019 76.8636 23.5464 79.6441 23.5464C81.509 23.5464 83.0066 22.456 83.3739 20.8694H88.5618C88.0136 24.8167 84.2103 27.7772 79.4237 27.7772C73.7215 27.7772 69.9238 23.7918 69.9238 18.6123V18.6068Z" fill="#FEFEFE"/>
<path d="M90.207 18.6068C90.207 13.3183 94.2647 9.44189 99.9273 9.44189C105.59 9.44189 109.648 13.3183 109.648 18.6068C109.648 23.8953 105.59 27.7718 99.9273 27.7718C94.2647 27.7718 90.207 23.8953 90.207 18.6068ZM104.533 18.6068C104.533 15.6464 102.668 13.6345 99.9273 13.6345C97.1864 13.6345 95.3215 15.6464 95.3215 18.6068C95.3215 21.5673 97.1864 23.541 99.9273 23.541C102.668 23.541 104.533 21.5291 104.533 18.6068Z" fill="#FEFEFE"/>
<path d="M112.717 9.72557H117.797V11.6665C118.894 10.2926 120.719 9.44751 123.098 9.44751C128.252 9.44751 131.541 13.0786 131.541 18.6124C131.541 24.1463 127.958 27.7774 122.663 27.7774C120.578 27.7774 118.792 27.1068 117.803 25.9073V34.6852H112.722V9.72557H112.717ZM126.534 18.607C126.534 15.6084 124.709 13.6347 122.041 13.6347C119.374 13.6347 117.509 15.6084 117.509 18.607C117.509 21.6056 119.301 23.5411 122.041 23.5411C124.782 23.5411 126.534 21.5675 126.534 18.607Z" fill="#FEFEFE"/>
<path d="M151.891 27.4939H146.777V25.0241C145.754 26.7143 143.708 27.772 141.188 27.772C137.057 27.772 134.355 24.8442 134.355 20.7933V9.72559H139.436V19.7029C139.436 21.851 140.9 23.4048 142.979 23.4048C145.206 23.4048 146.783 21.7147 146.783 19.4575V9.72559H151.897V27.4939H151.891Z" fill="#FEFEFE"/>
<path d="M155.914 2H160.995V27.4885H155.914V2Z" fill="#FEFEFE"/>
<path d="M163.99 21.4968H168.376C168.556 23.0833 169.839 24.0701 171.738 24.0701C173.309 24.0701 174.406 23.3287 174.406 22.3418C174.406 18.7107 164.505 22.271 164.505 14.7962C164.505 11.6612 167.319 9.43677 171.083 9.43677C175.508 9.43677 178.503 11.7266 178.684 15.2214H174.259C174.038 13.7057 172.614 12.8934 171.224 12.8934C169.834 12.8934 168.811 13.4931 168.811 14.6217C168.811 18.2528 178.898 14.1256 178.898 22.1674C178.898 25.5531 176.05 27.7721 171.738 27.7721C167.426 27.7721 164.171 25.3405 163.99 21.4968Z" fill="#FEFEFE"/>
<path d="M199 21.4637C198.271 25.3074 194.762 27.7772 190.23 27.7772C183.979 27.7772 180.764 23.0503 180.764 18.5741C180.764 14.098 183.612 9.44189 189.862 9.44189C196.113 9.44189 198.961 14.0598 198.961 18.1161C198.961 18.7868 198.927 19.3156 198.887 19.7027H185.658C186.025 22.2052 187.67 23.759 190.224 23.759C192.27 23.759 193.62 22.9849 194.027 21.4692H198.995L199 21.4637ZM185.737 16.6005H193.886C193.739 14.6268 192.315 13.0403 189.868 13.0403C187.568 13.0403 186.178 14.1307 185.737 16.6005Z" fill="#FEFEFE"/>
<path d="M91.704 42.8991V48.0841C91.704 48.4354 91.7833 48.6904 91.942 48.8491C92.112 48.9964 92.3953 49.0701 92.792 49.0701H93.982V50.6851H92.452C91.5793 50.6851 90.9106 50.4811 90.446 50.0731C89.9813 49.6651 89.749 49.0021 89.749 48.0841V42.8991H88.644V41.3181H89.749V38.9891H91.704V41.3181H93.982V42.8991H91.704ZM104.353 45.7721C104.353 46.1234 104.33 46.4407 104.285 46.7241H97.1282C97.1848 47.4721 97.4625 48.0727 97.9612 48.5261C98.4598 48.9794 99.0718 49.2061 99.7972 49.2061C100.84 49.2061 101.576 48.7697 102.007 47.8971H104.098C103.815 48.7584 103.299 49.4667 102.551 50.0221C101.814 50.5661 100.896 50.8381 99.7972 50.8381C98.9018 50.8381 98.0972 50.6397 97.3832 50.2431C96.6805 49.8351 96.1252 49.2684 95.7172 48.5431C95.3205 47.8064 95.1222 46.9564 95.1222 45.9931C95.1222 45.0297 95.3148 44.1854 95.7002 43.4601C96.0968 42.7234 96.6465 42.1567 97.3492 41.7601C98.0632 41.3634 98.8792 41.1651 99.7972 41.1651C100.681 41.1651 101.469 41.3577 102.16 41.7431C102.851 42.1284 103.39 42.6724 103.775 43.3751C104.16 44.0664 104.353 44.8654 104.353 45.7721ZM102.33 45.1601C102.319 44.4461 102.064 43.8737 101.565 43.4431C101.066 43.0124 100.449 42.7971 99.7122 42.7971C99.0435 42.7971 98.4712 43.0124 97.9952 43.4431C97.5192 43.8624 97.2358 44.4347 97.1452 45.1601H102.33ZM105.614 45.9931C105.614 45.0297 105.807 44.1854 106.192 43.4601C106.589 42.7234 107.133 42.1567 107.824 41.7601C108.516 41.3634 109.309 41.1651 110.204 41.1651C111.338 41.1651 112.273 41.4371 113.009 41.9811C113.757 42.5137 114.262 43.2787 114.522 44.2761H112.431C112.261 43.8114 111.989 43.4487 111.615 43.1881C111.241 42.9274 110.771 42.7971 110.204 42.7971C109.411 42.7971 108.776 43.0804 108.3 43.6471C107.836 44.2024 107.603 44.9844 107.603 45.9931C107.603 47.0017 107.836 47.7894 108.3 48.3561C108.776 48.9227 109.411 49.2061 110.204 49.2061C111.326 49.2061 112.069 48.7131 112.431 47.7271H114.522C114.25 48.6791 113.74 49.4384 112.992 50.0051C112.244 50.5604 111.315 50.8381 110.204 50.8381C109.309 50.8381 108.516 50.6397 107.824 50.2431C107.133 49.8351 106.589 49.2684 106.192 48.5431C105.807 47.8064 105.614 46.9564 105.614 45.9931ZM121.299 41.1651C122.013 41.1651 122.647 41.3181 123.203 41.6241C123.769 41.9301 124.211 42.3834 124.529 42.9841C124.857 43.5847 125.022 44.3101 125.022 45.1601V50.6851H123.101V45.4491C123.101 44.6104 122.891 43.9701 122.472 43.5281C122.052 43.0747 121.48 42.8481 120.755 42.8481C120.029 42.8481 119.451 43.0747 119.021 43.5281C118.601 43.9701 118.392 44.6104 118.392 45.4491V50.6851H116.454V38.1051H118.392V42.4061C118.72 42.0094 119.134 41.7034 119.633 41.4881C120.143 41.2727 120.698 41.1651 121.299 41.1651ZM132.22 41.1651C132.956 41.1651 133.614 41.3181 134.192 41.6241C134.781 41.9301 135.24 42.3834 135.569 42.9841C135.897 43.5847 136.062 44.3101 136.062 45.1601V50.6851H134.141V45.4491C134.141 44.6104 133.931 43.9701 133.512 43.5281C133.092 43.0747 132.52 42.8481 131.795 42.8481C131.069 42.8481 130.491 43.0747 130.061 43.5281C129.641 43.9701 129.432 44.6104 129.432 45.4491V50.6851H127.494V41.3181H129.432V42.3891C129.749 42.0037 130.151 41.7034 130.639 41.4881C131.137 41.2727 131.664 41.1651 132.22 41.1651ZM142.597 50.8381C141.713 50.8381 140.914 50.6397 140.2 50.2431C139.486 49.8351 138.925 49.2684 138.517 48.5431C138.109 47.8064 137.905 46.9564 137.905 45.9931C137.905 45.0411 138.114 44.1967 138.534 43.4601C138.953 42.7234 139.525 42.1567 140.251 41.7601C140.976 41.3634 141.786 41.1651 142.682 41.1651C143.577 41.1651 144.387 41.3634 145.113 41.7601C145.838 42.1567 146.41 42.7234 146.83 43.4601C147.249 44.1967 147.459 45.0411 147.459 45.9931C147.459 46.9451 147.243 47.7894 146.813 48.5261C146.382 49.2627 145.793 49.8351 145.045 50.2431C144.308 50.6397 143.492 50.8381 142.597 50.8381ZM142.597 49.1551C143.095 49.1551 143.56 49.0361 143.991 48.7981C144.433 48.5601 144.79 48.2031 145.062 47.7271C145.334 47.2511 145.47 46.6731 145.47 45.9931C145.47 45.3131 145.339 44.7407 145.079 44.2761C144.818 43.8001 144.472 43.4431 144.042 43.2051C143.611 42.9671 143.146 42.8481 142.648 42.8481C142.149 42.8481 141.684 42.9671 141.254 43.2051C140.834 43.4431 140.5 43.8001 140.251 44.2761C140.001 44.7407 139.877 45.3131 139.877 45.9931C139.877 47.0017 140.132 47.7837 140.642 48.3391C141.163 48.8831 141.815 49.1551 142.597 49.1551ZM151.313 38.1051V50.6851H149.375V38.1051H151.313ZM157.92 50.8381C157.036 50.8381 156.237 50.6397 155.523 50.2431C154.809 49.8351 154.248 49.2684 153.84 48.5431C153.432 47.8064 153.228 46.9564 153.228 45.9931C153.228 45.0411 153.438 44.1967 153.857 43.4601C154.276 42.7234 154.849 42.1567 155.574 41.7601C156.299 41.3634 157.11 41.1651 158.005 41.1651C158.9 41.1651 159.711 41.3634 160.436 41.7601C161.161 42.1567 161.734 42.7234 162.153 43.4601C162.572 44.1967 162.782 45.0411 162.782 45.9931C162.782 46.9451 162.567 47.7894 162.136 48.5261C161.705 49.2627 161.116 49.8351 160.368 50.2431C159.631 50.6397 158.815 50.8381 157.92 50.8381ZM157.92 49.1551C158.419 49.1551 158.883 49.0361 159.314 48.7981C159.756 48.5601 160.113 48.2031 160.385 47.7271C160.657 47.2511 160.793 46.6731 160.793 45.9931C160.793 45.3131 160.663 44.7407 160.402 44.2761C160.141 43.8001 159.796 43.4431 159.365 43.2051C158.934 42.9671 158.47 42.8481 157.971 42.8481C157.472 42.8481 157.008 42.9671 156.577 43.2051C156.158 43.4431 155.823 43.8001 155.574 44.2761C155.325 44.7407 155.2 45.3131 155.2 45.9931C155.2 47.0017 155.455 47.7837 155.965 48.3391C156.486 48.8831 157.138 49.1551 157.92 49.1551ZM168.472 41.1651C169.197 41.1651 169.838 41.3124 170.393 41.6071C170.96 41.8904 171.402 42.2474 171.719 42.6781V41.3181H173.674V50.8381C173.674 51.6994 173.493 52.4644 173.13 53.1331C172.767 53.8131 172.24 54.3457 171.549 54.7311C170.869 55.1164 170.053 55.3091 169.101 55.3091C167.832 55.3091 166.778 55.0087 165.939 54.4081C165.1 53.8187 164.624 53.0141 164.511 51.9941H166.432C166.579 52.4814 166.891 52.8724 167.367 53.1671C167.854 53.4731 168.432 53.6261 169.101 53.6261C169.883 53.6261 170.512 53.3881 170.988 52.9121C171.475 52.4361 171.719 51.7447 171.719 50.8381V49.2741C171.39 49.7161 170.943 50.0901 170.376 50.3961C169.821 50.6907 169.186 50.8381 168.472 50.8381C167.656 50.8381 166.908 50.6341 166.228 50.2261C165.559 49.8067 165.027 49.2287 164.63 48.4921C164.245 47.7441 164.052 46.8997 164.052 45.9591C164.052 45.0184 164.245 44.1854 164.63 43.4601C165.027 42.7347 165.559 42.1737 166.228 41.7771C166.908 41.3691 167.656 41.1651 168.472 41.1651ZM171.719 45.9931C171.719 45.3471 171.583 44.7861 171.311 44.3101C171.05 43.8341 170.705 43.4714 170.274 43.2221C169.843 42.9727 169.379 42.8481 168.88 42.8481C168.381 42.8481 167.917 42.9727 167.486 43.2221C167.055 43.4601 166.704 43.8171 166.432 44.2931C166.171 44.7577 166.041 45.3131 166.041 45.9591C166.041 46.6051 166.171 47.1717 166.432 47.6591C166.704 48.1464 167.055 48.5204 167.486 48.7811C167.928 49.0304 168.393 49.1551 168.88 49.1551C169.379 49.1551 169.843 49.0304 170.274 48.7811C170.705 48.5317 171.05 48.1691 171.311 47.6931C171.583 47.2057 171.719 46.6391 171.719 45.9931ZM177.205 40.0771C176.854 40.0771 176.559 39.9581 176.321 39.7201C176.083 39.4821 175.964 39.1874 175.964 38.8361C175.964 38.4847 176.083 38.1901 176.321 37.9521C176.559 37.7141 176.854 37.5951 177.205 37.5951C177.545 37.5951 177.834 37.7141 178.072 37.9521C178.31 38.1901 178.429 38.4847 178.429 38.8361C178.429 39.1874 178.31 39.4821 178.072 39.7201C177.834 39.9581 177.545 40.0771 177.205 40.0771ZM178.157 41.3181V50.6851H176.219V41.3181H178.157ZM189.287 45.7721C189.287 46.1234 189.264 46.4407 189.219 46.7241H182.062C182.118 47.4721 182.396 48.0727 182.895 48.5261C183.393 48.9794 184.005 49.2061 184.731 49.2061C185.773 49.2061 186.51 48.7697 186.941 47.8971H189.032C188.748 48.7584 188.233 49.4667 187.485 50.0221C186.748 50.5661 185.83 50.8381 184.731 50.8381C183.835 50.8381 183.031 50.6397 182.317 50.2431C181.614 49.8351 181.059 49.2684 180.651 48.5431C180.254 47.8064 180.056 46.9564 180.056 45.9931C180.056 45.0297 180.248 44.1854 180.634 43.4601C181.03 42.7234 181.58 42.1567 182.283 41.7601C182.997 41.3634 183.813 41.1651 184.731 41.1651C185.615 41.1651 186.402 41.3577 187.094 41.7431C187.785 42.1284 188.323 42.6724 188.709 43.3751C189.094 44.0664 189.287 44.8654 189.287 45.7721ZM187.264 45.1601C187.252 44.4461 186.997 43.8737 186.499 43.4431C186 43.0124 185.382 42.7971 184.646 42.7971C183.977 42.7971 183.405 43.0124 182.929 43.4431C182.453 43.8624 182.169 44.4347 182.079 45.1601H187.264ZM194.594 50.8381C193.857 50.8381 193.194 50.7077 192.605 50.4471C192.027 50.1751 191.568 49.8124 191.228 49.3591C190.888 48.8944 190.707 48.3787 190.684 47.8121H192.69C192.724 48.2087 192.911 48.5431 193.251 48.8151C193.602 49.0757 194.039 49.2061 194.56 49.2061C195.104 49.2061 195.523 49.1041 195.818 48.9001C196.124 48.6847 196.277 48.4127 196.277 48.0841C196.277 47.7327 196.107 47.4721 195.767 47.3021C195.438 47.1321 194.911 46.9451 194.186 46.7411C193.483 46.5484 192.911 46.3614 192.469 46.1801C192.027 45.9987 191.642 45.7211 191.313 45.3471C190.996 44.9731 190.837 44.4801 190.837 43.8681C190.837 43.3694 190.984 42.9161 191.279 42.5081C191.574 42.0887 191.993 41.7601 192.537 41.5221C193.092 41.2841 193.727 41.1651 194.441 41.1651C195.506 41.1651 196.362 41.4371 197.008 41.9811C197.665 42.5137 198.017 43.2447 198.062 44.1741H196.124C196.09 43.7547 195.92 43.4204 195.614 43.1711C195.308 42.9217 194.894 42.7971 194.373 42.7971C193.863 42.7971 193.472 42.8934 193.2 43.0861C192.928 43.2787 192.792 43.5337 192.792 43.8511C192.792 44.1004 192.883 44.3101 193.064 44.4801C193.245 44.6501 193.466 44.7861 193.727 44.8881C193.988 44.9787 194.373 45.0977 194.883 45.2451C195.563 45.4264 196.118 45.6134 196.549 45.8061C196.991 45.9874 197.371 46.2594 197.688 46.6221C198.005 46.9847 198.17 47.4664 198.181 48.0671C198.181 48.5997 198.034 49.0757 197.739 49.4951C197.444 49.9144 197.025 50.2431 196.481 50.4811C195.948 50.7191 195.319 50.8381 194.594 50.8381Z" fill="#FC9725"/>
</svg>
