<svg width="80" height="71" viewBox="0 0 80 71" fill="none" xmlns="http://www.w3.org/2000/svg">
<path d="M59.113 52.1091C54.1762 56.42 47.3851 58.4986 40.4759 57.1876C29.7519 55.168 22.2877 45.696 22.4294 35.1373L9.7094 29.1139C6.2489 48.2352 18.898 66.6597 38.0311 70.2501C51.2235 72.7304 64.1089 67.5101 72.0456 57.7782L59.113 52.1091Z" fill="#FEFEFE"/>
<path d="M79.3788 41.9759C78.8001 45.0585 77.8316 47.9639 76.5561 50.6685L48.4115 38.7871L48.7186 43.8892L0 20.8468L35.3845 27.4962L36.3057 22.6066L66.0093 29.8819C65.6786 28.5827 65.2298 27.319 64.6629 26.1261C61.7457 19.8665 55.9703 15.036 48.6714 13.666C39.9788 12.0361 31.4988 15.7447 26.6328 22.4649L12.7554 19.8547C19.5701 5.90645 35.1246 -2.39638 51.1161 0.61532C54.8837 1.32395 58.4033 2.5995 61.5803 4.35927C60.6591 5.70567 59.9977 7.27648 59.6788 8.9772C58.4387 15.5793 62.7968 21.957 69.3989 23.1971C72.2216 23.7286 74.9853 23.2444 77.3356 21.9924C78.3513 24.4727 79.1072 27.0828 79.5324 29.7638C79.7213 30.9212 79.8631 32.1023 79.9339 33.2833C80.1111 36.1297 79.9339 39.0351 79.3788 41.9641V41.9759Z" fill="#FEFEFE"/>
<path d="M77.7134 12.3785C77.3591 14.2564 76.1898 15.78 74.6308 16.6421C73.4261 17.3153 71.9734 17.587 70.4971 17.3153C67.1429 16.6894 64.9461 13.4651 65.5721 10.1109C65.7375 9.20147 66.1036 8.38654 66.6114 7.67791C67.9578 5.77641 70.3436 4.72527 72.7765 5.18588C76.1307 5.81184 78.3275 9.03612 77.7016 12.3903L77.7134 12.3785Z" fill="#FEFEFE"/>
</svg>
