<svg width="188" height="35" viewBox="0 0 188 35" fill="none" xmlns="http://www.w3.org/2000/svg">
<path d="M28.9569 25.5265C26.5386 27.6383 23.2119 28.6565 19.8273 28.0143C14.574 27.025 10.9175 22.3849 10.9869 17.2126L4.75581 14.262C3.06063 23.6288 9.257 32.6544 18.6297 34.4132C25.0922 35.6282 31.4042 33.0709 35.2922 28.3036L28.9569 25.5265Z" fill="#FC9725"/>
<path d="M38.885 20.5626C38.6015 22.0726 38.1271 23.4959 37.5022 24.8208L23.7151 19.0005L23.8656 21.4998L0 10.2121L17.3336 13.4694L17.7849 11.0742L32.3357 14.6381C32.1737 14.0017 31.9538 13.3826 31.6761 12.7983C30.2471 9.73194 27.4179 7.36563 23.8424 6.6945C19.5842 5.89609 15.4302 7.71277 13.0465 11.0048L6.24844 9.72615C9.58673 2.89337 17.2064 -1.1739 25.04 0.301424C26.8856 0.64856 28.6098 1.2734 30.1661 2.13546C29.7148 2.79501 29.3908 3.5645 29.2346 4.39762C28.6271 7.63177 30.762 10.756 33.9961 11.3635C35.3789 11.6238 36.7327 11.3866 37.8841 10.7733C38.3816 11.9883 38.7519 13.2669 38.9602 14.5803C39.0527 15.1473 39.1222 15.7258 39.1569 16.3044C39.2437 17.6987 39.1569 19.122 38.885 20.5568V20.5626Z" fill="#FC9725"/>
<path d="M38.0701 6.06374C37.8965 6.98365 37.3237 7.72999 36.56 8.15234C35.9699 8.48212 35.2583 8.61519 34.5351 8.48212C32.892 8.17549 31.8158 6.59602 32.1225 4.95291C32.2035 4.50742 32.3828 4.10821 32.6316 3.76108C33.2912 2.8296 34.4599 2.31468 35.6517 2.54032C37.2948 2.84695 38.3709 4.42642 38.0643 6.06953L38.0701 6.06374Z" fill="#FC9725"/>
<path d="M64.3081 19.9381C63.6238 23.678 60.3295 26.081 56.075 26.081C50.2079 26.081 47.1895 21.4818 47.1895 17.1265C47.1895 12.7712 49.8631 8.24091 55.7302 8.24091C61.5974 8.24091 64.271 12.7341 64.271 16.6809C64.271 17.3334 64.2339 17.848 64.202 18.2246H51.7834C52.1282 20.6595 53.672 22.1714 56.0697 22.1714C57.9901 22.1714 59.2579 21.4181 59.6399 19.9434H64.3028L64.3081 19.9381ZM51.8577 15.2061H59.5073C59.3693 13.2858 58.0325 11.7421 55.7355 11.7421C53.5765 11.7421 52.2715 12.8031 51.8577 15.2061Z" fill="#FEFEFE"/>
<path d="M66.0273 17.1584C66.0273 12.1135 69.5922 8.24097 74.9448 8.24097C79.4751 8.24097 83.0771 10.9836 83.3847 14.9993H78.5839C78.308 13.4556 76.8333 12.3257 75.0827 12.3257C72.5098 12.3257 70.998 14.3521 70.998 17.1637C70.998 19.9752 72.5417 21.9646 75.1516 21.9646C76.9022 21.9646 78.308 20.9036 78.6528 19.3599H83.5227C83.0081 23.2006 79.438 26.0811 74.9448 26.0811C69.5922 26.0811 66.0273 22.2033 66.0273 17.1637V17.1584Z" fill="#FEFEFE"/>
<path d="M85.0645 17.1584C85.0645 12.0127 88.8733 8.24097 94.1888 8.24097C99.5042 8.24097 103.313 12.0127 103.313 17.1584C103.313 22.3041 99.5042 26.0758 94.1888 26.0758C88.8733 26.0758 85.0645 22.3041 85.0645 17.1584ZM98.5122 17.1584C98.5122 14.2779 96.7616 12.3204 94.1888 12.3204C91.6159 12.3204 89.8653 14.2779 89.8653 17.1584C89.8653 20.0389 91.6159 21.9593 94.1888 21.9593C96.7616 21.9593 98.5122 20.0018 98.5122 17.1584Z" fill="#FEFEFE"/>
<path d="M106.195 8.51688H110.964V10.4054C111.994 9.06858 113.707 8.24633 115.94 8.24633C120.778 8.24633 123.866 11.7793 123.866 17.1637C123.866 22.5481 120.503 26.0812 115.532 26.0812C113.574 26.0812 111.898 25.4287 110.97 24.2616V32.8024H106.201V8.51688H106.195ZM119.166 17.1584C119.166 14.2408 117.452 12.3204 114.948 12.3204C112.444 12.3204 110.694 14.2408 110.694 17.1584C110.694 20.0761 112.376 21.9593 114.948 21.9593C117.521 21.9593 119.166 20.039 119.166 17.1584Z" fill="#FEFEFE"/>
<path d="M138.168 25.8053V23.4022C137.208 25.0467 135.287 26.0758 132.921 26.0758C129.044 26.0758 126.508 23.2271 126.508 19.2856V8.51685H131.277V18.2247C131.277 20.3148 132.651 21.8267 134.603 21.8267C136.693 21.8267 138.173 20.1822 138.173 17.986V8.51685H142.974V25.8053H138.168Z" fill="#FEFEFE"/>
<path d="M146.746 1H151.515V25.8001H146.746V1Z" fill="#FEFEFE"/>
<path d="M154.326 19.97H158.443C158.612 21.5137 159.817 22.4739 161.599 22.4739C163.074 22.4739 164.103 21.7524 164.103 20.7922C164.103 17.2592 154.809 20.7233 154.809 13.4504C154.809 10.4001 157.451 8.23572 160.984 8.23572C165.137 8.23572 167.949 10.4638 168.119 13.8641H163.965C163.758 12.3894 162.421 11.599 161.116 11.599C159.811 11.599 158.851 12.1825 158.851 13.2806C158.851 16.8136 168.32 12.7979 168.32 20.6225C168.32 23.9168 165.647 26.0759 161.599 26.0759C157.551 26.0759 154.496 23.7099 154.326 19.97Z" fill="#FEFEFE"/>
<path d="M187.189 19.9381C186.505 23.678 183.21 26.081 178.956 26.081C173.089 26.081 170.07 21.4818 170.07 17.1265C170.07 12.7712 172.744 8.24091 178.611 8.24091C184.478 8.24091 187.152 12.7341 187.152 16.6809C187.152 17.3334 187.12 17.848 187.083 18.2246H174.664C175.009 20.6595 176.553 22.1714 178.951 22.1714C180.871 22.1714 182.139 21.4181 182.521 19.9434H187.184L187.189 19.9381ZM174.739 15.2061H182.388C182.25 13.2858 180.913 11.7421 178.616 11.7421C176.457 11.7421 175.152 12.8031 174.739 15.2061Z" fill="#FEFEFE"/>
</svg>
