<svg width="256" height="256" viewBox="0 0 256 256" fill="none" xmlns="http://www.w3.org/2000/svg">
<path d="M189.16 181.75C173.362 195.545 151.631 202.196 129.521 198.001C95.2043 191.538 71.3186 161.228 71.772 127.44L31.0683 108.165C19.9946 169.353 60.4718 228.312 121.698 239.801C163.913 247.738 205.147 231.033 230.544 199.891L189.16 181.75Z" fill="#FC9725"/>
<path d="M254.012 149.323C252.16 159.187 249.061 168.485 244.98 177.139L154.917 139.119L155.899 155.446L0 81.7099L113.23 102.988L116.178 87.341L211.23 110.622C210.171 106.465 208.735 102.421 206.921 98.6038C197.586 78.573 179.105 63.1152 155.748 58.7312C127.932 53.5155 100.796 65.3829 85.2251 86.8875L40.8174 78.5352C62.6243 33.9007 112.399 7.33161 163.572 16.969C175.628 19.2366 186.89 23.3184 197.057 28.9496C194.109 33.2582 191.993 38.2847 190.972 43.727C187.004 64.8539 200.95 85.2625 222.077 89.2309C231.109 90.9314 239.953 89.382 247.474 85.3759C250.724 93.3125 253.143 101.665 254.504 110.244C255.108 113.948 255.562 117.727 255.789 121.507C256.356 130.615 255.788 139.912 254.012 149.285V149.323Z" fill="#FC9725"/>
<path d="M248.681 54.6111C247.547 60.6204 243.806 65.4957 238.817 68.2547C234.962 70.4091 230.313 71.2782 225.589 70.4091C214.855 68.4059 207.826 58.0881 209.829 47.3547C210.358 44.4446 211.53 41.8368 213.155 39.5692C217.463 33.4844 225.097 30.1208 232.883 31.5947C243.617 33.5978 250.646 43.9155 248.643 54.6489L248.681 54.6111Z" fill="#FC9725"/>
</svg>
